<?xml version="1.0" encoding="UTF-8" standalone="no"?>
<!-- Created with Inkscape (http://www.inkscape.org/) -->

<svg
   version="1.1"
   id="svg2"
   width="682.66669"
   height="682.66669"
   viewBox="0 0 682.66669 682.66669"
   sodipodi:docname="logo512.svg"
   inkscape:version="1.2.2 (b0a8486541, 2022-12-01)"
   xmlns:inkscape="http://www.inkscape.org/namespaces/inkscape"
   xmlns:sodipodi="http://sodipodi.sourceforge.net/DTD/sodipodi-0.dtd"
   xmlns="http://www.w3.org/2000/svg"
   xmlns:svg="http://www.w3.org/2000/svg">
  <defs
     id="defs6" />
  <sodipodi:namedview
     id="namedview4"
     pagecolor="#ffffff"
     bordercolor="#000000"
     borderopacity="0.25"
     inkscape:showpageshadow="2"
     inkscape:pageopacity="0.0"
     inkscape:pagecheckerboard="0"
     inkscape:deskcolor="#d1d1d1"
     showgrid="false"
     inkscape:zoom="0.60717772"
     inkscape:cx="317.04062"
     inkscape:cy="392.80098"
     inkscape:window-width="1536"
     inkscape:window-height="842"
     inkscape:window-x="-6"
     inkscape:window-y="865"
     inkscape:window-maximized="1"
     inkscape:current-layer="g8" />
  <g
     inkscape:groupmode="layer"
     inkscape:label="Image"
     id="g8">
    <path
       style="fill:#51657f;stroke:none;stroke-width:1.33333"
       d="M 84.489567,2.9145672 C 42.291699,9.5050661 9.3977115,43.40156 5.9473836,86.329162 2.4241779,130.16343 5.822898,175.67317 5.822898,219.6625 v 266.66668 81.33333 c 0,27.84267 -0.062185,55 17.047334,78.66667 35.539734,49.16 97.942008,38.66667 150.952678,38.66667 h 294.66667 93.33334 c 16.416,0 34.52667,2.12533 50.66667,-1.07733 38.25733,-7.59067 72.94133,-41.496 75.88,-81.58934 3.28533,-44.816 0.12,-91.052 0.12,-136 V 196.99583 119.6625 c 0,-29.896671 0.34667,-57.744139 -19.18667,-82.666673 C 632.90425,-9.4411878 568.55225,2.3291592 516.48958,2.3291592 H 227.15624 133.8229 c -16.04973,0 -33.46293,-1.8932267 -49.333333,0.585408 M 327.15624,125.3817 c 26.36401,-3.43454 52.48801,7.31053 66.57467,30.2808 18.62667,30.37067 -2.37866,64.58133 -35.908,68.948 -24.348,3.16933 -52.73733,-10.30933 -64.88267,-31.61467 -17.288,-30.32533 0.144,-63.1756 34.216,-67.61413 m -158.66667,3.9948 c 44.04,-5.2104 77.42134,50.12733 33.33334,76.48333 -7.69867,4.60267 -16.41467,7.35067 -25.33334,8.24134 -33.32133,3.33066 -71.45587,-33.57734 -48.46813,-66.43867 9.60133,-13.72534 24.96813,-16.45227 40.46813,-18.286 m 213.33334,108.01933 c 15.64934,-2.256 30.276,1.88534 39.26934,15.60534 18.47333,28.18 31.00133,59.19867 51.24267,86.66133 16.932,22.97067 44.00133,45.11867 54.19733,72.00001 9.90267,26.10666 -10.06667,48.772 -35.376,52.748 -36.41333,5.72 -35.98267,-30.52134 -49.01334,-52.748 -24.54266,-41.86534 -65.29733,-74.72534 -86.64133,-118.66667 -11.68267,-24.05334 -2.14933,-51.49601 26.32133,-55.60001 m -180,6.64667 c 19.188,-2.29467 71.084,3.50934 49.72933,35.61867 -12.12667,18.236 -44.92667,28.428 -65.72933,30.44133 -12.63467,1.22267 -27.67467,0.36934 -38.66667,-6.61733 -14.1424,-8.99067 -18.462,-28.17467 -6.228,-40.876 14.14,-14.68133 41.86267,-16.28933 60.89467,-18.56667 m 16,101.33467 c 19.62666,-2.41067 44.18533,2.45734 58.26533,17.184 6.46,6.756 13.22267,18.92134 6.38267,27.62267 -4.46933,5.68667 -12.59333,6.232 -19.31467,6.692 -19.264,1.32133 -37.15467,7.41733 -56,9.21733 -22.588,2.156 -34.136,-22.51466 -24.82933,-41.09733 6.91466,-13.80667 21.232,-17.86667 35.496,-19.61867 m 57.33333,56.38 c 23.508,0 43.27734,15.62934 23.75334,37.90534 -15.56134,17.75333 -37.452,28.568 -61.08667,27.98 -21.15067,-0.52533 -57.284,-26.44933 -34.38134,-48.69334 16.704,-16.22533 49.83334,-17.192 71.71467,-17.192 m 184.00001,68.95201 c 19.32,-2.28 70.93067,1.60533 56.26133,34.28666 -9.444,21.03867 -47.968,36.11867 -69.59466,38.43467 -12.17734,1.30534 -26.39334,1.06 -37.33334,-4.97467 -17.17467,-9.47333 -25.21467,-30.65066 -11.36133,-46.66933 14.49333,-16.756 41.63066,-18.668 62.028,-21.07733 m -196.00001,13.33466 c 19.528,-2.39733 66.888,-4.4 71.696,22.28534 1.99467,11.07466 -5.92533,17.20933 -14.36266,22.59466 -16.012,10.21867 -34.25067,20.02001 -53.33334,22.35734 -26.46133,3.24133 -59.05333,-24.53067 -40.19467,-51.56534 7.67867,-11.008 23.72801,-14.14 36.19467,-15.672 z"
       id="path190" />
  </g>
</svg>
